<svg width="59" height="31" viewBox="0 0 59 31" fill="none" xmlns="http://www.w3.org/2000/svg">
<g filter="url(#filter0_d_1_29)">
<rect x="34.2592" y="8.11768" width="15.7407" height="13.8889" rx="3" fill="#FF3904"/>
</g>
<path d="M30.5555 15.5252L34.2592 13.6733L34.2592 17.377L30.5555 15.5252Z" fill="#FF3904"/>
<path d="M41.9849 17.553V11.873L42.3549 12.153L40.9749 12.883L40.6849 11.943L42.5549 10.943H43.0749V17.553H41.9849ZM40.8749 18.043V17.003H44.2149V18.043H40.8749Z" fill="white"/>
<path d="M12.0208 28.1527C12.7126 28.1527 13.2734 27.5919 13.2734 26.9001C13.2734 26.2083 12.7126 25.6475 12.0208 25.6475C11.329 25.6475 10.7682 26.2083 10.7682 26.9001C10.7682 27.5919 11.329 28.1527 12.0208 28.1527Z" stroke="#4502C7" stroke-width="3" stroke-linecap="round" stroke-linejoin="round"/>
<path d="M25.7994 28.1527C26.4912 28.1527 27.052 27.5919 27.052 26.9001C27.052 26.2083 26.4912 25.6475 25.7994 25.6475C25.1076 25.6475 24.5468 26.2083 24.5468 26.9001C24.5468 27.5919 25.1076 28.1527 25.7994 28.1527Z" stroke="#4502C7" stroke-width="3" stroke-linecap="round" stroke-linejoin="round"/>
<path d="M1.99994 1.84814H7.01036L10.3673 18.6205C10.4819 19.1972 10.7956 19.7153 11.2536 20.0839C11.7116 20.4526 12.2847 20.6485 12.8726 20.6372H25.0479C25.6357 20.6485 26.2088 20.4526 26.6668 20.0839C27.1248 19.7153 27.4385 19.1972 27.5531 18.6205L29.5573 8.11117H8.26297" stroke="#4502C7" stroke-width="3" stroke-linecap="round" stroke-linejoin="round"/>
<defs>
<filter id="filter0_d_1_29" x="29.2592" y="3.11768" width="29.7407" height="27.8887" filterUnits="userSpaceOnUse" color-interpolation-filters="sRGB">
<feFlood flood-opacity="0" result="BackgroundImageFix"/>
<feColorMatrix in="SourceAlpha" type="matrix" values="0 0 0 0 0 0 0 0 0 0 0 0 0 0 0 0 0 0 127 0" result="hardAlpha"/>
<feOffset dx="2" dy="2"/>
<feGaussianBlur stdDeviation="3.5"/>
<feComposite in2="hardAlpha" operator="out"/>
<feColorMatrix type="matrix" values="0 0 0 0 0 0 0 0 0 0 0 0 0 0 0 0 0 0 0.08 0"/>
<feBlend mode="normal" in2="BackgroundImageFix" result="effect1_dropShadow_1_29"/>
<feBlend mode="normal" in="SourceGraphic" in2="effect1_dropShadow_1_29" result="shape"/>
</filter>
</defs>
</svg>
